<svg version="1.1" id="colorbarMobile" xmlns="http://www.w3.org/2000/svg" xmlns:xlink="http://www.w3.org/1999/xlink" x="0px"
	 y="0px" viewBox="-107 382.2 396.2 29.8" style="enable-background:new -107 382.2 396.2 29.8;" xml:space="preserve">
<style type="text/css">
	.st0{fill:#006496;}
	.st1{fill:#F27A21;}
	.st2{fill:#B4282E;}
	.st3{fill:#4C9E45;}
	.st4{fill:#FEC52E;}
</style>
<polygon class="st0" points="-24.4,397.1 -152.3,397.1 -145.4,382.2 -17.4,382.2 "/>
<polygon class="st1" points="102.6,397.1 -25.3,397.1 -18.4,382.2 109.6,382.2 "/>
<polygon class="st2" points="230,397.1 102,397.1 108.9,382.2 236.9,382.2 "/>
<polygon class="st3" points="357.7,397.1 229.7,397.1 236.7,382.2 364.6,382.2 "/>
<polygon class="st2" points="-91,412 -219,412 -212,397.1 -84.1,397.1 "/>
<polygon class="st3" points="36,412 -92,412 -85,397.1 42.9,397.1 "/>
<polygon class="st0" points="291.1,412 163.1,412 170,397.1 298,397.1 "/>
<polygon class="st4" points="162.6,412 34.6,412 41.6,397.1 169.4,397.1 "/>
</svg>