<svg version="1.1" id="colorBarDesktop" xmlns="http://www.w3.org/2000/svg" xmlns:xlink="http://www.w3.org/1999/xlink" x="0px"
	 y="0px" viewBox="247 382.2 1105.4 29.8" style="enable-background:new 247 382.2 1105.4 29.8;" xml:space="preserve">
<style type="text/css">
	.colorBarDesktopst0{fill:#006496;}
	.colorBarDesktopst1{fill:#B4282E;}
	.colorBarDesktopst2{fill:#E17F26;}
	.colorBarDesktopst3{fill:#4C9E45;}
	.colorBarDesktopst4{fill:#FEC52E;}
	.colorBarDesktopst5{fill:#00A9AC;}
</style>
<g>
	<g>
		<polygon class="colorBarDesktopst0" points="360.1,397.1 232.1,397.1 239,382.2 367,382.2 		"/>
		<polygon class="colorBarDesktopst1" points="233.1,397.1 105.1,397.1 112,382.2 240,382.2 		"/>
		<polygon class="colorBarDesktopst2" points="487.1,397.1 359.1,397.1 366,382.2 494,382.2 		"/>
		<polygon class="colorBarDesktopst1" points="614.4,397.1 486.4,397.1 493.4,382.2 621.3,382.2 		"/>
		<polygon class="colorBarDesktopst3" points="742.1,397.1 614.2,397.1 621.1,382.2 749.1,382.2 		"/>
		<polygon class="colorBarDesktopst1" points="293.4,412 165.5,412 172.4,397.1 300.4,397.1 		"/>
		<polygon class="colorBarDesktopst3" points="420.4,412 292.5,412 299.4,397.1 427.4,397.1 		"/>
		<polygon class="colorBarDesktopst4" points="547.8,412 419.8,412 426.7,397.1 554.7,397.1 		"/>
		<polygon class="colorBarDesktopst0" points="675.5,412 547.5,412 554.5,397.1 682.4,397.1 		"/>
		<polygon class="colorBarDesktopst2" points="803.6,412 675.6,412 682.6,397.1 810.5,397.1 		"/>
		<polygon class="colorBarDesktopst4" points="870,397.1 742.1,397.1 749,382.2 877,382.2 		"/>
		<polygon class="colorBarDesktopst2" points="1123.8,397.1 995.8,397.1 1002.7,382.2 1130.7,382.2 		"/>
		<polygon class="colorBarDesktopst0" points="996.8,397.1 868.8,397.1 875.7,382.2 1003.7,382.2 		"/>
		<polygon class="colorBarDesktopst1" points="1250.8,397.1 1122.8,397.1 1129.7,382.2 1257.7,382.2 		"/>
		<polygon class="colorBarDesktopst3" points="1378.1,397.1 1250.1,397.1 1257.1,382.2 1385,382.2 		"/>
		<polygon class="colorBarDesktopst1" points="1505.8,397.1 1377.9,397.1 1384.8,382.2 1512.8,382.2 		"/>
		<polygon class="colorBarDesktopst3" points="1057.1,412 929.2,412 936.1,397.1 1064.1,397.1 		"/>
		<polygon class="colorBarDesktopst4" points="1184.1,412 1056.2,412 1063.1,397.1 1191.1,397.1 		"/>
		<polygon class="colorBarDesktopst0" points="1311.5,412 1183.5,412 1190.4,397.1 1318.4,397.1 		"/>
		<polygon class="colorBarDesktopst2" points="1439.2,412 1311.2,412 1318.2,397.1 1446.1,397.1 		"/>
		<polygon class="colorBarDesktopst5" points="1567.3,412 1439.3,412 1446.3,397.1 1574.2,397.1 		"/>
		<polygon class="colorBarDesktopst2" points="1633.8,397.1 1505.8,397.1 1512.7,382.2 1640.7,382.2 		"/>
	</g>
	<polygon class="colorBarDesktopst1" points="931.3,412 803.3,412 810.3,397.1 938.2,397.1 	"/>
</g>
</svg>