<svg version="1.1" id="OnedayClrLogo" xmlns="http://www.w3.org/2000/svg" xmlns:xlink="http://www.w3.org/1999/xlink" x="0px"
	 y="0px" viewBox="-127 308.9 356.8 113" style="enable-background:new -127 308.9 356.8 113;" xml:space="preserve">
<style type="text/css">
	.OneDayClrLogost0{fill:#FFFFFF;}
</style>
<g>
	<g>
		<path class="OneDayClrLogost0" d="M-126.9,348.1c0-20.9,14.6-38.7,37.5-38.7c21.2,0,35.3,13.7,35.3,34.2c0,20.9-14.6,38.7-37.5,38.7
			C-112.9,382.3-126.9,368.6-126.9,348.1z M-72.3,343.7c0-10.8-6.5-18.5-17.1-18.5c-11.4,0-19.3,9.3-19.3,22.8
			c0,10.8,6.5,18.5,17.1,18.5C-80.2,366.5-72.3,357.2-72.3,343.7z"/>
		<path class="OneDayClrLogost0" d="M-18.7,381.1l5.5-31.2c0.2-1.3,0.2-2.1,0.2-2.7c0-3.4-2.3-5.6-6.8-5.6c-2.7,0-5.7,0.5-8.4,1.3l-6.6,38.2
			h-16.9l8.7-49.6c6.8-2.4,17.6-5,26-5c13.2,0,21.2,4.2,21.2,16.4c0,2-0.2,4.5-0.6,6.9l-5.5,31.3H-18.7z"/>
		<path class="OneDayClrLogost0" d="M55,378.7c-5.6,2.6-11,3.6-18.3,3.6c-15.7,0-26.7-8.6-26.7-25.4c0-16.6,10.9-30.4,29.6-30.4
			c15.5,0,22.6,9,22.6,21.2c0,3.1-0.8,7.8-2.4,11.8H26.7c0,0.1,0,0.2,0,0.4c1.2,5.8,6.5,8.3,12.7,8.3c7,0,12.5-1.5,18.2-4.3
			L55,378.7z M46.1,349.8c0.1-0.8,0.2-1.7,0.2-2.5c0-4.5-2.8-7.4-7.5-7.4c-6.2,0-10.1,3.9-11.6,9.9H46.1z"/>
		<g>
			<path class="OneDayClrLogost0" d="M81.2,310.3c4.5-0.6,10-0.9,14.4-0.9c21.2,0,36.8,10.6,36.8,32.2c0,28.7-21.1,40.7-45.6,40.7
				c-6.6,0-13.9-0.9-17.8-2.4L81.2,310.3z M77,374.8c2.1,0.6,4.9,1.1,9.7,1.1c21.7,0,38.2-9.7,38.2-34.3c0-16.9-12.3-25.8-29.4-25.8
				c-2.4,0-5.3,0.1-8.2,0.4L77,374.8z"/>
			<path class="OneDayClrLogost0" d="M86.8,382.8c-6.8,0-14-1-18-2.4l-0.4-0.1l0.1-0.4l12.3-70h0.4c4.5-0.6,10-1,14.4-1
				c23.3,0,37.3,12.2,37.3,32.7C132.9,367.4,115.6,382.8,86.8,382.8z M69.5,379.6c3.9,1.3,10.8,2.2,17.2,2.2
				c28.2,0,45.1-15,45.1-40.2c0-19.8-13.6-31.7-36.3-31.7c-4.3,0-9.6,0.3-13.9,0.9L69.5,379.6z M86.8,376.4c-5.2,0-7.9-0.5-9.9-1.1
				l-0.4-0.1L87,315.7h0.4c2.7-0.2,5.7-0.4,8.2-0.4c18.5,0,29.9,10.1,29.9,26.3C125.5,364,111.7,376.4,86.8,376.4z M77.6,374.4
				c1.8,0.5,4.4,0.9,9.2,0.9c24.3,0,37.7-12,37.7-33.8c0-15.6-11.1-25.3-28.9-25.3c-2.4,0-5.2,0.1-7.8,0.3L77.6,374.4z"/>
		</g>
		<g>
			<path class="OneDayClrLogost0" d="M170.1,366.3h-25.9l-8.3,14.7h-5.8l30.2-53.4h7.3l11.2,53.4h-5.7L170.1,366.3z M146.8,361.7h22.4l-5.9-29.4
				L146.8,361.7z"/>
			<path class="OneDayClrLogost0" d="M180.2,382.2h-7.9l-3.1-14.7h-24.3l-8.3,14.7h-8.4l31.4-55.6h8.8L180.2,382.2z M174,380h3.4l-10.8-51.2h-5.7
				L132,380h3.3l8.3-14.7H171L174,380z M170.5,362.8h-25.6l18.8-33.7L170.5,362.8z M148.7,360.6h19.1l-5.1-25.1L148.7,360.6z"/>
		</g>
		<g>
			<path class="OneDayClrLogost0" d="M221.2,327.7h6.3l-25.1,32.1l-3.7,21.3h-5.6l3.8-21.3l-13.8-32.1h5.9l11.3,27L221.2,327.7z"/>
			<path class="OneDayClrLogost0" d="M199.7,382.2h-7.8l3.9-22.3l-14.4-33.3h8.4l10.9,26l20-26h9.1l-26.3,33.7L199.7,382.2z M194.5,380h3.3
				l3.6-20.6l23.8-30.5h-3.5l-21.6,28l-11.8-28.1h-3.5l13.3,30.8L194.5,380z"/>
		</g>
		<path class="OneDayClrLogost0" d="M218.1,381h-1.6v-5h-2v-1.4h5.5v1.4h-2v5H218.1z M223.9,381l-1.3-4.2l-0.7,4.2h-1.5l1.1-6.4h1.8l1.4,4.4
			l1.3-4.4h1.9l1,6.4h-1.5l-0.7-4.2l-1.3,4.2H223.9z"/>
	</g>
	<g>
		<path class="OneDayClrLogost0" d="M-113.2,416.4h-3.9V397h-7.2v-3.5h18.3v3.5h-7.2V416.4z"/>
		<path class="OneDayClrLogost0" d="M-93,393.1c6.6,0,11.9,4.8,11.9,11.8s-5.3,11.8-11.9,11.8c-6.6,0-11.9-4.8-11.9-11.8
			C-104.8,398-99.6,393.1-93,393.1z M-93,396.7c-4.4,0-7.8,3.3-7.8,8.3s3.4,8.3,7.8,8.3s7.8-3.3,7.8-8.3S-88.6,396.7-93,396.7z"/>
		<path class="OneDayClrLogost0" d="M-52.7,399.1c-1.6-1.5-3.8-2.4-6.3-2.4c-4.5,0-7.7,3.3-7.7,8.3s3.4,8.3,7.9,8.3c2.6,0,4.7-0.8,6.5-2.3v4.2
			c-2,1.2-4.2,1.7-6.6,1.7c-7,0-11.8-4.9-11.8-11.8c0-7,5-11.8,11.8-11.8c2.3,0,4.5,0.5,6.3,1.6L-52.7,399.1L-52.7,399.1z"/>
		<path class="OneDayClrLogost0" d="M-37.8,393.1c6.6,0,11.9,4.8,11.9,11.8s-5.3,11.8-11.9,11.8s-11.9-4.8-11.9-11.8
			C-49.6,398-44.4,393.1-37.8,393.1z M-37.8,396.7c-4.4,0-7.8,3.3-7.8,8.3s3.4,8.3,7.8,8.3S-30,410-30,405S-33.4,396.7-37.8,396.7z"
			/>
		<path class="OneDayClrLogost0" d="M-6,410.4v-16.9h3.8v22.9H-6l-11.7-16.8v16.8h-3.8v-22.9h4L-6,410.4z"/>
		<path class="OneDayClrLogost0" d="M13.5,416.8c-6.4-0.2-11.4-5-11.4-11.8c0-7,5.2-11.8,11.9-11.8c6.6,0,11.9,4.8,11.9,11.8
			c0,5.6-3.4,9.8-8.1,11.3l5.1,5.6h-4.8L13.5,416.8z M14,396.7c-4.4,0-7.8,3.3-7.8,8.3s3.4,8.3,7.8,8.3c4.4,0,7.8-3.3,7.8-8.3
			S18.4,396.7,14,396.7z"/>
		<path class="OneDayClrLogost0" d="M29.8,393.5h3.9v14.4c0,4.4,2.3,5.5,5.7,5.5c1.8,0,3.2-0.2,4.5-0.4v-19.5h3.9v22.2c-2.1,0.6-5.7,1-8.4,1
			c-5.2,0-9.6-1.8-9.6-8.2L29.8,393.5L29.8,393.5z"/>
		<path class="OneDayClrLogost0" d="M67.7,412.9v3.5H53.5v-22.9h14v3.5H57.4v6.2h9.4v3.4h-9.4v6.4h10.3V412.9z"/>
		<path class="OneDayClrLogost0" d="M76.3,416.4h-3.9v-22.8c1.4-0.2,3.9-0.4,5.7-0.4c6,0,9.3,2.7,9.3,7.5c0,3.4-1.9,5.8-4.5,6.8l6.9,9H85
			l-6.1-8.1h-2.6L76.3,416.4L76.3,416.4z M76.3,405h1.9c3.1,0,5.1-1.3,5.1-4.3c0-2.6-1.8-4.2-5.3-4.2c-0.5,0-1.3,0-1.8,0.1v8.4H76.3
			z"/>
		<path class="OneDayClrLogost0" d="M116.6,399.1c-1.6-1.5-3.8-2.4-6.3-2.4c-4.5,0-7.7,3.3-7.7,8.3s3.4,8.3,7.9,8.3c2.6,0,4.7-0.8,6.5-2.3v4.2
			c-2,1.2-4.2,1.7-6.6,1.7c-7,0-11.8-4.9-11.8-11.8c0-7,5-11.8,11.8-11.8c2.3,0,4.5,0.5,6.3,1.6L116.6,399.1L116.6,399.1z"/>
		<path class="OneDayClrLogost0" d="M125.1,411l-2,5.4h-4.2l8.9-22.9h4.8l8.9,22.9h-4.3l-2-5.4H125.1z M130.2,397.2l-3.9,10.6h7.8L130.2,397.2z"
			/>
		<path class="OneDayClrLogost0" d="M160.2,410.4v-16.9h3.8v22.9h-3.8l-11.7-16.8v16.8h-3.8v-22.9h4L160.2,410.4z"/>
		<path class="OneDayClrLogost0" d="M186.4,399.1c-1.6-1.5-3.8-2.4-6.3-2.4c-4.5,0-7.7,3.3-7.7,8.3s3.4,8.3,7.9,8.3c2.6,0,4.7-0.8,6.5-2.3v4.2
			c-2,1.2-4.2,1.7-6.6,1.7c-7,0-11.8-4.9-11.8-11.8c0-7,5-11.8,11.8-11.8c2.3,0,4.5,0.5,6.3,1.6L186.4,399.1L186.4,399.1z"/>
		<path class="OneDayClrLogost0" d="M205.2,412.9v3.5H191v-22.9h14v3.5h-10.1v6.2h9.4v3.4h-9.4v6.4h10.3V412.9z"/>
		<path class="OneDayClrLogost0" d="M213.8,416.4h-3.9v-22.8c1.4-0.2,3.9-0.4,5.7-0.4c6,0,9.3,2.7,9.3,7.5c0,3.4-1.9,5.8-4.5,6.8l6.9,9h-4.7
			l-6.1-8.1h-2.6L213.8,416.4L213.8,416.4z M213.8,405h1.9c3.1,0,5.1-1.3,5.1-4.3c0-2.6-1.8-4.2-5.3-4.2c-0.5,0-1.3,0-1.8,0.1
			L213.8,405L213.8,405z"/>
	</g>
</g>
</svg>