<svg version="1.1" id="OneDayClrLogo" xmlns="http://www.w3.org/2000/svg" xmlns:xlink="http://www.w3.org/1999/xlink" x="0px" y="0px"
	 viewBox="0 0 356.8 177.1" style="enable-background:new 0 0 356.8 177.1;" xml:space="preserve">
<style type="text/css">
	.onedayclrlogost0{fill:#B3282D;}
	.onedayclrlogost1{fill:#4E9D2D;}
	.onedayclrlogost2{fill:#E27C00;}
	.onedayclrlogost3{fill:#FFC627;}
	.onedayclrlogost4{fill:#00609C;}
</style>
<g>
	<g>
		<polygon class="onedayclrlogost0" points="1.6,145.8 0,149.3 71.5,149.3 74.3,145.8 1.6,145.8 		"/>
		<polygon class="onedayclrlogost1" points="73.6,145.8 71,149.3 142.8,149.3 146.3,145.8 73.6,145.8 		"/>
		<polygon class="onedayclrlogost2" points="291.9,145.8 288.4,149.3 353.2,149.3 356.6,145.8 291.9,145.8 		"/>
		<polygon class="onedayclrlogost3" points="146.2,145.8 142.7,149.3 221.6,149.3 225.1,145.8 146.2,145.8 		"/>
		<polygon class="onedayclrlogost4" points="219.2,145.8 215.7,149.3 288.4,149.3 291.9,145.8 219.2,145.8 		"/>
	</g>
	<g>
		<path class="onedayclrlogost4" d="M0.1,39.2c0-20.9,14.6-38.7,37.5-38.7c21.2,0,35.3,13.7,35.3,34.2c0,20.9-14.6,38.7-37.5,38.7
			C14.1,73.4,0.1,59.7,0.1,39.2z M54.7,34.8c0-10.8-6.5-18.5-17.1-18.5c-11.4,0-19.3,9.3-19.3,22.8c0,10.8,6.5,18.5,17.1,18.5
			C46.8,57.6,54.7,48.3,54.7,34.8z"/>
		<path class="onedayclrlogost4" d="M108.3,72.2l5.5-31.2c0.2-1.3,0.2-2.1,0.2-2.7c0-3.4-2.3-5.6-6.8-5.6c-2.7,0-5.7,0.5-8.4,1.3l-6.6,38.2H75.3
			l8.7-49.6c6.8-2.4,17.6-5,26-5c13.2,0,21.2,4.2,21.2,16.4c0,2-0.2,4.5-0.6,6.9l-5.5,31.3H108.3z"/>
		<path class="onedayclrlogost4" d="M182,69.8c-5.6,2.6-11,3.6-18.3,3.6C148,73.4,137,64.8,137,48c0-16.6,10.9-30.4,29.6-30.4
			c15.5,0,22.6,9,22.6,21.2c0,3.1-0.8,7.8-2.4,11.8h-33.1c0,0.1,0,0.2,0,0.4c1.2,5.8,6.5,8.3,12.7,8.3c7,0,12.5-1.5,18.2-4.3
			L182,69.8z M173.1,40.9c0.1-0.8,0.2-1.7,0.2-2.5c0-4.5-2.8-7.4-7.5-7.4c-6.2,0-10.1,3.9-11.6,9.9H173.1z"/>
		<g>
			<path class="onedayclrlogost2" d="M208.2,1.4c4.5-0.6,10-0.9,14.4-0.9c21.2,0,36.8,10.6,36.8,32.2c0,28.7-21.1,40.7-45.6,40.7
				c-6.6,0-13.9-0.9-17.8-2.4L208.2,1.4z M204,65.9c2.1,0.6,4.9,1.1,9.7,1.1c21.7,0,38.2-9.7,38.2-34.3c0-16.9-12.3-25.8-29.4-25.8
				c-2.4,0-5.3,0.1-8.2,0.4L204,65.9z"/>
			<path class="onedayclrlogost2" d="M213.8,73.9c-6.8,0-14-1-18-2.4l-0.4-0.1l0.1-0.4L207.8,1l0.4,0c4.5-0.6,10-1,14.4-1
				c23.3,0,37.3,12.2,37.3,32.7C259.9,58.5,242.6,73.9,213.8,73.9z M196.5,70.7c3.9,1.3,10.8,2.2,17.2,2.2c28.2,0,45.1-15,45.1-40.2
				c0-19.8-13.6-31.7-36.3-31.7c-4.3,0-9.6,0.3-13.9,0.9L196.5,70.7z M213.8,67.5c-5.2,0-7.9-0.5-9.9-1.1l-0.4-0.1L214,6.8l0.4,0
				c2.7-0.2,5.7-0.4,8.2-0.4c18.5,0,29.9,10.1,29.9,26.3C252.5,55.1,238.7,67.5,213.8,67.5z M204.6,65.5c1.8,0.5,4.4,0.9,9.2,0.9
				c24.3,0,37.7-12,37.7-33.8c0-15.6-11.1-25.3-28.9-25.3c-2.4,0-5.2,0.1-7.8,0.3L204.6,65.5z"/>
		</g>
		<g>
			<path class="onedayclrlogost2" d="M297.1,57.4h-25.9l-8.3,14.7h-5.8l30.2-53.4h7.3l11.2,53.4h-5.7L297.1,57.4z M273.8,52.8h22.4l-5.9-29.4
				L273.8,52.8z"/>
			<path class="onedayclrlogost2" d="M307.2,73.3h-7.9l-3.1-14.7h-24.3l-8.3,14.7h-8.4l31.4-55.6h8.8L307.2,73.3z M301,71.1h3.4l-10.8-51.2h-5.7
				L259,71.1h3.3l8.3-14.7H298L301,71.1z M297.5,53.9h-25.6l18.8-33.7L297.5,53.9z M275.7,51.7h19.1l-5.1-25.1L275.7,51.7z"/>
		</g>
		<g>
			<path class="onedayclrlogost2" d="M348.2,18.8h6.3l-25.1,32.1l-3.7,21.3h-5.6l3.8-21.3l-13.8-32.1h5.9l11.3,27L348.2,18.8z"/>
			<path class="onedayclrlogost2" d="M326.7,73.3h-7.8l3.9-22.3l-14.4-33.3h8.4l10.9,26l20-26h9.1l-26.3,33.7L326.7,73.3z M321.5,71.1h3.3
				l3.6-20.6l23.8-30.5h-3.5L327.1,48l-11.8-28.1h-3.5l13.3,30.8L321.5,71.1z"/>
		</g>
		<path class="onedayclrlogost2" d="M345.1,72.1h-1.6v-5h-2v-1.4h5.5v1.4h-2V72.1z M350.9,72.1l-1.3-4.2l-0.7,4.2h-1.5l1.1-6.4h1.8l1.4,4.4
			l1.3-4.4h1.9l1,6.4h-1.5l-0.7-4.2l-1.3,4.2H350.9z"/>
	</g>
	<g>
		<path class="onedayclrlogost4" d="M13.8,107.5H9.9V88.1H2.7v-3.5H21v3.5h-7.2V107.5z"/>
		<path class="onedayclrlogost4" d="M34,84.2c6.6,0,11.9,4.8,11.9,11.8c0,7-5.3,11.8-11.9,11.8c-6.6,0-11.9-4.8-11.9-11.8
			C22.2,89.1,27.4,84.2,34,84.2z M34,87.8c-4.4,0-7.8,3.3-7.8,8.3c0,5,3.4,8.3,7.8,8.3s7.8-3.3,7.8-8.3C41.8,91.1,38.4,87.8,34,87.8
			z"/>
		<path class="onedayclrlogost4" d="M74.3,90.2c-1.6-1.5-3.8-2.4-6.3-2.4c-4.5,0-7.7,3.3-7.7,8.3c0,5,3.4,8.3,7.9,8.3c2.6,0,4.7-0.8,6.5-2.3v4.2
			c-2,1.2-4.2,1.7-6.6,1.7c-7,0-11.8-4.9-11.8-11.8c0-7,5-11.8,11.8-11.8c2.3,0,4.5,0.5,6.3,1.6V90.2z"/>
		<path class="onedayclrlogost4" d="M89.2,84.2c6.6,0,11.9,4.8,11.9,11.8c0,7-5.3,11.8-11.9,11.8c-6.6,0-11.9-4.8-11.9-11.8
			C77.4,89.1,82.6,84.2,89.2,84.2z M89.2,87.8c-4.4,0-7.8,3.3-7.8,8.3c0,5,3.4,8.3,7.8,8.3c4.4,0,7.8-3.3,7.8-8.3
			C97,91.1,93.6,87.8,89.2,87.8z"/>
		<path class="onedayclrlogost4" d="M121,101.5V84.6h3.8v22.9H121l-11.7-16.8v16.8h-3.8V84.6h4L121,101.5z"/>
		<path class="onedayclrlogost4" d="M140.5,107.9c-6.4-0.2-11.4-5-11.4-11.8c0-7,5.2-11.8,11.9-11.8c6.6,0,11.9,4.8,11.9,11.8
			c0,5.6-3.4,9.8-8.1,11.3l5.1,5.6h-4.8L140.5,107.9z M141,87.8c-4.4,0-7.8,3.3-7.8,8.3c0,5,3.4,8.3,7.8,8.3c4.4,0,7.8-3.3,7.8-8.3
			C148.8,91.1,145.4,87.8,141,87.8z"/>
		<path class="onedayclrlogost4" d="M156.8,84.6h3.9V99c0,4.4,2.3,5.5,5.7,5.5c1.8,0,3.2-0.2,4.5-0.4V84.6h3.9v22.2c-2.1,0.6-5.7,1-8.4,1
			c-5.2,0-9.6-1.8-9.6-8.2V84.6z"/>
		<path class="onedayclrlogost4" d="M194.7,104v3.5h-14.2V84.6h14v3.5h-10.1v6.2h9.4v3.4h-9.4v6.4H194.7z"/>
		<path class="onedayclrlogost4" d="M203.3,107.5h-3.9V84.7c1.4-0.2,3.9-0.4,5.7-0.4c6,0,9.3,2.7,9.3,7.5c0,3.4-1.9,5.8-4.5,6.8l6.9,9H212
			l-6.1-8.1h-2.6V107.5z M203.3,96.1h1.9c3.1,0,5.1-1.3,5.1-4.3c0-2.6-1.8-4.2-5.3-4.2c-0.5,0-1.3,0-1.8,0.1V96.1z"/>
		<path class="onedayclrlogost4" d="M243.6,90.2c-1.6-1.5-3.8-2.4-6.3-2.4c-4.5,0-7.7,3.3-7.7,8.3c0,5,3.4,8.3,7.9,8.3c2.6,0,4.7-0.8,6.5-2.3v4.2
			c-2,1.2-4.2,1.7-6.6,1.7c-7,0-11.8-4.9-11.8-11.8c0-7,5-11.8,11.8-11.8c2.3,0,4.5,0.5,6.3,1.6V90.2z"/>
		<path class="onedayclrlogost4" d="M252.1,102.1l-2,5.4h-4.2l8.9-22.9h4.8l8.9,22.9h-4.3l-2-5.4H252.1z M257.2,88.3l-3.9,10.6h7.8L257.2,88.3z"
			/>
		<path class="onedayclrlogost4" d="M287.2,101.5V84.6h3.8v22.9h-3.8l-11.7-16.8v16.8h-3.8V84.6h4L287.2,101.5z"/>
		<path class="onedayclrlogost4" d="M313.4,90.2c-1.6-1.5-3.8-2.4-6.3-2.4c-4.5,0-7.7,3.3-7.7,8.3c0,5,3.4,8.3,7.9,8.3c2.6,0,4.7-0.8,6.5-2.3v4.2
			c-2,1.2-4.2,1.7-6.6,1.7c-7,0-11.8-4.9-11.8-11.8c0-7,5-11.8,11.8-11.8c2.3,0,4.5,0.5,6.3,1.6V90.2z"/>
		<path class="onedayclrlogost4" d="M332.2,104v3.5H318V84.6h14v3.5h-10.1v6.2h9.4v3.4h-9.4v6.4H332.2z"/>
		<path class="onedayclrlogost4" d="M340.8,107.5h-3.9V84.7c1.4-0.2,3.9-0.4,5.7-0.4c6,0,9.3,2.7,9.3,7.5c0,3.4-1.9,5.8-4.5,6.8l6.9,9h-4.7
			l-6.1-8.1h-2.6V107.5z M340.8,96.1h1.9c3.1,0,5.1-1.3,5.1-4.3c0-2.6-1.8-4.2-5.3-4.2c-0.5,0-1.3,0-1.8,0.1V96.1z"/>
	</g>
	<g>
		<path class="onedayclrlogost4" d="M12.6,118c4.4,0,7.9,3.2,7.9,7.8c0,4.6-3.5,7.8-7.9,7.8c-4.4,0-7.9-3.2-7.9-7.8C4.7,121.2,8.2,118,12.6,118z
			 M12.6,120.3c-2.9,0-5.2,2.2-5.2,5.5c0,3.3,2.3,5.5,5.2,5.5s5.2-2.2,5.2-5.5C17.8,122.5,15.5,120.3,12.6,120.3z"/>
		<path class="onedayclrlogost4" d="M23.4,122.8c1.6-0.6,3.5-1,5.2-1c2.9,0,4.7,1.1,4.7,4.3v7.3h-2.5v-7c0-1.6-1-2.2-2.4-2.2
			c-0.9,0-1.8,0.1-2.5,0.3v8.9h-2.5V122.8z"/>
		<path class="onedayclrlogost4" d="M38.6,128.3L38.6,128.3c0.2,2.1,1.9,3.2,3.7,3.2c1.6,0,2.7-0.4,3.8-1.1v2.2c-1,0.7-2.5,1-4,1
			c-3.5,0-5.9-2.2-5.9-5.8c0-3.6,2.3-6,5.5-6c3.3,0,4.9,2.1,4.9,5.2v1.3H38.6z M44,126.7c-0.1-1.8-0.9-2.7-2.6-2.7
			c-1.5,0-2.5,1-2.9,2.7H44z"/>
		<path class="onedayclrlogost4" d="M59.5,118.2l3,12.3l3-12.3h2.6l-3.9,15.2h-3.3L58,121.7l-2.9,11.7h-3.3L48,118.2h2.6l3,12.3l3-12.3H59.5z"/>
		<path class="onedayclrlogost4" d="M75.6,125.8c0-1.2-0.9-1.8-2.2-1.8c-1.3,0-2.3,0.4-3.3,0.9v-2.2c1-0.6,2.3-0.9,3.7-0.9c2.5,0,4.2,1,4.2,3.9
			v7.5c-1.1,0.3-2.6,0.5-3.9,0.5c-2.9,0-5.1-0.9-5.1-3.4c0-2.3,2-3.4,5.2-3.4h1.3V125.8z M75.6,128.5h-1.1c-1.8,0-2.9,0.5-2.9,1.7
			c0,1.2,1.1,1.6,2.6,1.6c0.4,0,0.9-0.1,1.4-0.1V128.5z"/>
		<path class="onedayclrlogost4" d="M84.2,133.4h-2.5V116h2.5V133.4z"/>
		<path class="onedayclrlogost4" d="M90.5,133.4h-2.5V116h2.5V133.4z M90.6,127.3l4.8-5.2h3.1l-5,5.1l5.1,6.2h-3L90.6,127.3z"/>
		<path class="onedayclrlogost4" d="M108.3,124.1c1.5,0,2.7,1.2,2.7,2.7c0,1.5-1.2,2.7-2.7,2.7s-2.7-1.2-2.7-2.7
			C105.6,125.3,106.8,124.1,108.3,124.1z"/>
		<path class="onedayclrlogost4" d="M126.7,118c4.4,0,7.9,3.2,7.9,7.8c0,4.6-3.5,7.8-7.9,7.8c-4.4,0-7.9-3.2-7.9-7.8
			C118.8,121.2,122.3,118,126.7,118z M126.7,120.3c-2.9,0-5.2,2.2-5.2,5.5c0,3.3,2.3,5.5,5.2,5.5s5.2-2.2,5.2-5.5
			C131.9,122.5,129.6,120.3,126.7,120.3z"/>
		<path class="onedayclrlogost4" d="M137.6,122.8c1.6-0.6,3.5-1,5.2-1c2.9,0,4.7,1.1,4.7,4.3v7.3H145v-7c0-1.6-1-2.2-2.4-2.2
			c-0.9,0-1.8,0.1-2.5,0.3v8.9h-2.5V122.8z"/>
		<path class="onedayclrlogost4" d="M152.7,128.3L152.7,128.3c0.2,2.1,1.9,3.2,3.7,3.2c1.6,0,2.7-0.4,3.8-1.1v2.2c-1,0.7-2.5,1-4,1
			c-3.5,0-5.9-2.2-5.9-5.8c0-3.6,2.3-6,5.5-6c3.3,0,4.9,2.1,4.9,5.2v1.3H152.7z M158.2,126.7c-0.1-1.8-0.9-2.7-2.6-2.7
			c-1.5,0-2.5,1-2.9,2.7H158.2z"/>
		<path class="onedayclrlogost4" d="M166.3,133.4h-2.6v-15.1c0.9-0.2,2.6-0.3,3.8-0.3c4,0,6.2,1.8,6.2,5c0,2.2-1.3,3.8-3,4.5l4.6,6H172l-4-5.4
			h-1.7V133.4z M166.3,125.9h1.3c2.1,0,3.4-0.9,3.4-2.9c0-1.7-1.2-2.8-3.5-2.8c-0.3,0-0.9,0-1.2,0.1V125.9z"/>
		<path class="onedayclrlogost4" d="M176.9,118.6c0-0.9,0.7-1.6,1.6-1.6c0.8,0,1.6,0.7,1.6,1.6c0,0.9-0.7,1.6-1.6,1.6
			C177.7,120.2,176.9,119.5,176.9,118.6z M179.8,133.4h-2.5v-11.3h2.5V133.4z"/>
		<path class="onedayclrlogost4" d="M193.5,133.2c-1.3,0.3-2.9,0.5-4.3,0.5c-3.9,0-6.5-2.1-6.5-5.9c0-3.7,2.6-5.9,6-5.9c0.8,0,1.7,0.2,2.2,0.4
			V116h2.5V133.2z M191,124.5c-0.5-0.3-1.2-0.4-2.1-0.4c-2.1,0-3.7,1.3-3.7,3.7c0,2.4,1.6,3.8,4,3.8c0.5,0,1.1,0,1.7-0.1V124.5z"/>
		<path class="onedayclrlogost4" d="M198.8,128.3L198.8,128.3c0.2,2.1,1.9,3.2,3.7,3.2c1.6,0,2.7-0.4,3.8-1.1v2.2c-1,0.7-2.5,1-4,1
			c-3.5,0-5.9-2.2-5.9-5.8c0-3.6,2.3-6,5.5-6c3.3,0,4.9,2.1,4.9,5.2v1.3H198.8z M204.3,126.7c-0.1-1.8-0.9-2.7-2.6-2.7
			c-1.5,0-2.5,1-2.9,2.7H204.3z"/>
		<path class="onedayclrlogost4" d="M217.2,124.1c1.5,0,2.7,1.2,2.7,2.7c0,1.5-1.2,2.7-2.7,2.7s-2.7-1.2-2.7-2.7
			C214.6,125.3,215.7,124.1,217.2,124.1z"/>
		<path class="onedayclrlogost4" d="M237.6,129.8h-6.8l-2,3.6H226l8.5-15.2h3.2l3.3,15.2h-2.7L237.6,129.8z M231.9,127.7h5.3l-1.4-7L231.9,127.7z
			"/>
		<path class="onedayclrlogost4" d="M246,118.2h2.6l-2.3,12.9h6.2l-0.4,2.3h-8.8L246,118.2z"/>
		<path class="onedayclrlogost4" d="M257.4,118.2h2.6l-2.3,12.9h6.2l-0.4,2.3h-8.8L257.4,118.2z"/>
		<path class="onedayclrlogost4" d="M283.2,121.9c-1-1-2.5-1.6-4.2-1.6c-3,0-5.1,2.2-5.1,5.5c0,3.3,2.2,5.5,5.2,5.5c1.7,0,3.1-0.5,4.3-1.6v2.8
			c-1.3,0.8-2.8,1.1-4.4,1.1c-4.7,0-7.8-3.2-7.8-7.8c0-4.6,3.3-7.8,7.8-7.8c1.6,0,3,0.3,4.2,1.1V121.9z"/>
		<path class="onedayclrlogost4" d="M292.2,125.8c0-1.2-0.9-1.8-2.2-1.8c-1.3,0-2.3,0.4-3.3,0.9v-2.2c1-0.6,2.3-0.9,3.7-0.9c2.5,0,4.2,1,4.2,3.9
			v7.5c-1.1,0.3-2.6,0.5-3.9,0.5c-2.9,0-5.1-0.9-5.1-3.4c0-2.3,2-3.4,5.2-3.4h1.3V125.8z M292.2,128.5h-1.1c-1.8,0-2.9,0.5-2.9,1.7
			c0,1.2,1.1,1.6,2.6,1.6c0.4,0,0.9-0.1,1.4-0.1V128.5z"/>
		<path class="onedayclrlogost4" d="M298.3,122.8c1.6-0.6,3.5-1,5.2-1c2.9,0,4.7,1.1,4.7,4.3v7.3h-2.5v-7c0-1.6-1-2.2-2.4-2.2
			c-0.9,0-1.8,0.1-2.5,0.3v8.9h-2.5V122.8z"/>
		<path class="onedayclrlogost4" d="M320.1,125.1c-0.9-0.7-1.9-1-3-1c-2,0-3.6,1.3-3.6,3.7c0,2.2,1.5,3.7,3.7,3.7c1.1,0,2.1-0.4,3-1v2.4
			c-1,0.6-2.1,0.8-3.3,0.8c-3.4,0-5.9-2.3-5.9-5.9c0-3.7,2.6-5.9,5.9-5.9c1.3,0,2.2,0.3,3.2,0.8V125.1z"/>
		<path class="onedayclrlogost4" d="M324.8,128.3L324.8,128.3c0.2,2.1,1.9,3.2,3.7,3.2c1.6,0,2.7-0.4,3.8-1.1v2.2c-1,0.7-2.5,1-4,1
			c-3.5,0-5.9-2.2-5.9-5.8c0-3.6,2.3-6,5.5-6c3.3,0,4.9,2.1,4.9,5.2v1.3H324.8z M330.2,126.7c-0.1-1.8-0.9-2.7-2.6-2.7
			c-1.5,0-2.5,1-2.9,2.7H330.2z"/>
		<path class="onedayclrlogost4" d="M338.1,133.4h-2.5V123c1.2-0.7,2.8-1.1,4.4-1.1c0.8,0,1.4,0.1,2.2,0.3v2.5c-0.7-0.3-1.5-0.4-2.2-0.4
			c-0.8,0-1.4,0.2-1.9,0.4V133.4z"/>
		<path class="onedayclrlogost4" d="M344.2,130.3c1,0.8,2.3,1.3,3.4,1.3c1.1,0,1.9-0.4,1.9-1.3c0-0.9-0.7-1.3-2.1-1.6c-2.3-0.5-3.3-1.5-3.3-3.4
			c0-2.3,1.7-3.4,4-3.4c1.3,0,2.3,0.3,3.2,0.9v2.3c-1-0.7-2-1.1-3.2-1.1c-1.1,0-1.7,0.5-1.7,1.3c0,0.7,0.5,1.1,1.8,1.5
			c2.6,0.6,3.7,1.5,3.7,3.6c0,2.4-1.8,3.4-4.3,3.4c-1.3,0-2.7-0.4-3.5-0.9V130.3z"/>
	</g>
	<g>
		<path class="onedayclrlogost4" d="M9,173.2H5.7v-13c1-0.2,2.8-0.3,4.1-0.3c3.3,0,5.6,1.4,5.6,4.5c0,1.9-1.1,3.2-2.3,3.9l3.5,4.9h-3.8L9.9,169H9
			V173.2z M9,166.3h0.8c1.4,0,2.3-0.5,2.3-1.8c0-1.3-1-1.8-2.2-1.8c-0.3,0-0.7,0-0.9,0V166.3z"/>
		<path class="onedayclrlogost4" d="M22.5,163.1c3,0,5.2,2.1,5.2,5.2s-2.3,5.2-5.2,5.2c-2.9,0-5.2-2.1-5.2-5.2S19.6,163.1,22.5,163.1z
			 M22.5,165.8c-1.2,0-2.1,0.9-2.1,2.5s0.9,2.5,2.1,2.5c1.2,0,2.1-0.9,2.1-2.5S23.8,165.8,22.5,165.8z"/>
		<path class="onedayclrlogost4" d="M34.1,169.7l2.2-6.4h3.2l-5.4,13.8h-3.1l1.4-3.8l-4-10.1h3.4L34.1,169.7z"/>
		<path class="onedayclrlogost4" d="M45.7,166.9c0-0.9-0.8-1.2-1.7-1.2c-1.2,0-2.1,0.4-2.8,0.8v-2.6c0.9-0.5,2.1-0.8,3.4-0.8
			c2.4,0,4.2,0.9,4.2,3.7v6.2c-1,0.2-2.6,0.4-4,0.4c-2.4,0-4.4-0.7-4.4-3.1c0-2.1,1.6-3,4.3-3h1.1V166.9z M45.7,169.1h-0.8
			c-1,0-1.4,0.3-1.4,1c0,0.7,0.5,1,1.3,1c0.3,0,0.7,0,1-0.1V169.1z"/>
		<path class="onedayclrlogost4" d="M54.6,173.2h-3.1v-14.9h3.1V173.2z"/>
		<path class="onedayclrlogost4" d="M61.8,160.3c1-0.2,2.8-0.4,4-0.4c2.9,0,5.2,0.9,5.2,3.7c0,1.5-1.1,2.5-2.3,2.8c1.7,0.2,3,1.2,3,3.1
			c0,2.5-1.9,3.8-6.3,3.8c-1.2,0-2.7-0.1-3.5-0.3V160.3z M65,165.4h0.9c1.4,0,1.9-0.5,1.9-1.4c0-0.9-0.7-1.2-1.7-1.2
			c-0.4,0-0.9,0-1.2,0.1V165.4z M65,170.6c0.3,0,0.8,0,1,0c1.3,0,2.3-0.3,2.3-1.4c0-1-0.7-1.3-1.9-1.3H65V170.6z"/>
		<path class="onedayclrlogost4" d="M77,173.2h-3.1V164c1.1-0.6,2.6-0.9,4-0.9c0.9,0,1.4,0.1,2.2,0.3v3c-0.7-0.3-1.4-0.4-2.1-0.4
			c-0.3,0-0.7,0-1.1,0.1V173.2z"/>
		<path class="onedayclrlogost4" d="M81.7,160.3c0-1,0.8-1.8,1.8-1.8c0.9,0,1.8,0.8,1.8,1.8c0,1-0.8,1.8-1.8,1.8
			C82.5,162.1,81.7,161.3,81.7,160.3z M85,173.2h-3.1v-9.9H85V173.2z"/>
		<path class="onedayclrlogost4" d="M87.6,169.8c1,0.7,2.3,1.1,3.3,1.1c0.7,0,1.2-0.2,1.2-0.6c0-0.4-0.3-0.6-1.2-0.7c-2.4-0.3-3.4-1.3-3.4-3.1
			c0-2.3,1.8-3.3,4-3.3c1.2,0,2.1,0.3,3,0.7v2.7c-1-0.6-1.9-0.9-2.8-0.9c-0.8,0-1.1,0.3-1.1,0.6c0,0.4,0.3,0.6,1,0.7
			c2.8,0.5,3.6,1.5,3.6,3.3c0,2.2-1.6,3.2-4.1,3.2c-1.2,0-2.5-0.3-3.4-0.8V169.8z"/>
		<path class="onedayclrlogost4" d="M97.4,158.3h3.1v5.3c0.5-0.3,1.4-0.5,2.1-0.5c2.7,0,4.8,1.9,4.8,4.8c0,3.2-1.9,5.5-5.9,5.5
			c-1.8,0-3.2-0.4-4.2-0.8V158.3z M100.5,170.5c0.3,0.1,0.7,0.2,1.2,0.2c1.4,0,2.6-0.7,2.6-2.7c0-1.2-0.9-2.1-2.1-2.1
			c-0.7,0-1.3,0.3-1.6,0.5V170.5z"/>
		<path class="onedayclrlogost4" d="M114.4,166.9c0-0.9-0.8-1.2-1.7-1.2c-1.2,0-2.1,0.4-2.8,0.8v-2.6c0.9-0.5,2.1-0.8,3.4-0.8
			c2.4,0,4.2,0.9,4.2,3.7v6.2c-1,0.2-2.6,0.4-4,0.4c-2.4,0-4.4-0.7-4.4-3.1c0-2.1,1.6-3,4.3-3h1.1V166.9z M114.4,169.1h-0.8
			c-1,0-1.4,0.3-1.4,1c0,0.7,0.5,1,1.3,1c0.3,0,0.7,0,1-0.1V169.1z"/>
		<path class="onedayclrlogost4" d="M120.1,164c1.4-0.6,3.4-0.9,4.9-0.9c2.6,0,4.3,0.9,4.3,4.1v6h-3.1v-5.9c0-0.8-0.3-1.4-1.4-1.4
			c-0.5,0-1.1,0.1-1.6,0.2v7.1h-3.1V164z"/>
		<path class="onedayclrlogost4" d="M134.4,169.2L134.4,169.2c0.3,1.1,1.5,1.5,2.7,1.5c1.3,0,2.3-0.3,3.3-0.8v2.6c-0.9,0.6-2.3,0.9-3.6,0.9
			c-3.3,0-5.3-2-5.3-5c0-3.3,2.1-5.3,4.9-5.3c3.3,0,4.3,2.2,4.3,4.8v1.3H134.4z M137.7,167.4c0-0.9-0.4-1.8-1.5-1.8
			c-1,0-1.6,0.7-1.8,1.8H137.7z"/>
		<path class="onedayclrlogost4" d="M152.1,166.9c0-0.9-0.8-1.2-1.7-1.2c-1.2,0-2.1,0.4-2.8,0.8v-2.6c0.9-0.5,2.1-0.8,3.4-0.8
			c2.4,0,4.2,0.9,4.2,3.7v6.2c-1,0.2-2.6,0.4-4,0.4c-2.4,0-4.4-0.7-4.4-3.1c0-2.1,1.6-3,4.3-3h1.1V166.9z M152.1,169.1h-0.8
			c-1,0-1.4,0.3-1.4,1c0,0.7,0.5,1,1.3,1c0.3,0,0.7,0,1-0.1V169.1z"/>
		<path class="onedayclrlogost4" d="M157.8,164c1.4-0.6,3.4-0.9,4.9-0.9c2.6,0,4.3,0.9,4.3,4.1v6h-3.1v-5.9c0-0.8-0.3-1.4-1.4-1.4
			c-0.5,0-1.1,0.1-1.6,0.2v7.1h-3.1V164z"/>
		<path class="onedayclrlogost4" d="M179,172.9c-1.2,0.3-2.9,0.5-4.3,0.5c-3.4,0-5.7-1.8-5.7-5.1c0-3,2-5.2,5.1-5.2c0.7,0,1.3,0.1,1.7,0.3v-5.1
			h3.1V172.9z M175.9,166.1c-0.4-0.2-0.9-0.3-1.4-0.3c-1.4,0-2.2,0.9-2.2,2.3c0,1.7,1,2.6,2.6,2.6c0.2,0,0.7,0,1.1-0.1V166.1z"/>
		<path class="onedayclrlogost4" d="M196.2,160.1l2.3,9.3l2-9.3h3.2l-3.1,13h-4.1l-2-8.4l-2,8.4h-4l-3.1-13h3.3l2.1,9.3l2.2-9.3H196.2z"/>
		<path class="onedayclrlogost4" d="M209.6,163.1c3,0,5.2,2.1,5.2,5.2s-2.3,5.2-5.2,5.2c-2.9,0-5.2-2.1-5.2-5.2S206.6,163.1,209.6,163.1z
			 M209.6,165.8c-1.2,0-2.1,0.9-2.1,2.5s0.9,2.5,2.1,2.5c1.2,0,2.1-0.9,2.1-2.5S210.8,165.8,209.6,165.8z"/>
		<path class="onedayclrlogost4" d="M228.3,167.2c0-0.8-0.2-1.4-1.2-1.4c-0.5,0-1.1,0.1-1.5,0.3c0.1,0.2,0.2,0.4,0.2,0.8v6.2h-3.1v-6
			c0-0.8-0.2-1.4-1.2-1.4c-0.5,0-0.8,0.1-1.3,0.2v7.2H217V164c1.4-0.5,3.1-0.9,4.6-0.9c1.2,0,2.1,0.3,2.7,0.8
			c0.8-0.4,1.7-0.8,3.2-0.8c2.3,0,3.9,0.9,3.9,3.9v6.1h-3.1V167.2z"/>
		<path class="onedayclrlogost4" d="M236.5,169.2L236.5,169.2c0.3,1.1,1.5,1.5,2.7,1.5c1.3,0,2.3-0.3,3.3-0.8v2.6c-0.9,0.6-2.3,0.9-3.6,0.9
			c-3.3,0-5.3-2-5.3-5c0-3.3,2.1-5.3,4.9-5.3c3.3,0,4.3,2.2,4.3,4.8v1.3H236.5z M239.8,167.4c0-0.9-0.4-1.8-1.5-1.8
			c-1,0-1.6,0.7-1.8,1.8H239.8z"/>
		<path class="onedayclrlogost4" d="M245,164c1.4-0.6,3.4-0.9,4.9-0.9c2.6,0,4.3,0.9,4.3,4.1v6h-3.1v-5.9c0-0.8-0.3-1.4-1.4-1.4
			c-0.5,0-1.1,0.1-1.6,0.2v7.1H245V164z"/>
		<path class="onedayclrlogost4" d="M260.3,159c0,2.5-1.2,4.3-2.5,5.3h-2.1c1.1-1.6,1.5-3.2,1.5-5.3H260.3z"/>
		<path class="onedayclrlogost4" d="M261.4,169.8c1,0.7,2.3,1.1,3.3,1.1c0.7,0,1.2-0.2,1.2-0.6c0-0.4-0.3-0.6-1.2-0.7c-2.4-0.3-3.4-1.3-3.4-3.1
			c0-2.3,1.8-3.3,4-3.3c1.2,0,2.1,0.3,3,0.7v2.7c-1-0.6-1.9-0.9-2.8-0.9c-0.8,0-1.1,0.3-1.1,0.6c0,0.4,0.3,0.6,1,0.7
			c2.8,0.5,3.6,1.5,3.6,3.3c0,2.2-1.6,3.2-4.1,3.2c-1.2,0-2.5-0.3-3.4-0.8V169.8z"/>
		<path class="onedayclrlogost4" d="M284,160.1h3.3v13H284v-5h-5.2v5h-3.3v-13h3.3v5.1h5.2V160.1z"/>
		<path class="onedayclrlogost4" d="M294.6,163.1c3,0,5.2,2.1,5.2,5.2s-2.3,5.2-5.2,5.2c-2.9,0-5.2-2.1-5.2-5.2S291.7,163.1,294.6,163.1z
			 M294.6,165.8c-1.2,0-2.1,0.9-2.1,2.5s0.9,2.5,2.1,2.5c1.2,0,2.1-0.9,2.1-2.5S295.9,165.8,294.6,165.8z"/>
		<path class="onedayclrlogost4" d="M301.8,169.8c1,0.7,2.3,1.1,3.3,1.1c0.7,0,1.2-0.2,1.2-0.6c0-0.4-0.3-0.6-1.2-0.7c-2.4-0.3-3.4-1.3-3.4-3.1
			c0-2.3,1.8-3.3,4-3.3c1.2,0,2.1,0.3,3,0.7v2.7c-1-0.6-1.9-0.9-2.8-0.9c-0.8,0-1.1,0.3-1.1,0.6c0,0.4,0.3,0.6,1,0.7
			c2.8,0.5,3.6,1.5,3.6,3.3c0,2.2-1.6,3.2-4.1,3.2c-1.2,0-2.5-0.3-3.4-0.8V169.8z"/>
		<path class="onedayclrlogost4" d="M311.4,164c1.1-0.5,2.9-0.9,4.6-0.9c3.2,0,5.4,1.9,5.4,4.9c0,3.5-2,5.4-5.5,5.4c-0.6,0-1.1-0.1-1.4-0.1v3.9
			h-3.1V164z M314.5,170.5c0.3,0.1,0.7,0.2,1.1,0.2c1.4,0,2.6-0.7,2.6-2.6c0-1.5-1-2.2-2.3-2.2c-0.4,0-1,0.1-1.4,0.2V170.5z"/>
		<path class="onedayclrlogost4" d="M323.3,160.3c0-1,0.8-1.8,1.8-1.8c0.9,0,1.8,0.8,1.8,1.8c0,1-0.8,1.8-1.8,1.8
			C324.1,162.1,323.3,161.3,323.3,160.3z M326.7,173.2h-3.1v-9.9h3.1V173.2z"/>
		<path class="onedayclrlogost4" d="M328.2,163.3h1.5v-2.4h3.1v2.4h2.8v2.6h-2.8v3.2c0,1.1,0.5,1.4,1.3,1.4c0.7,0,1.3-0.2,1.8-0.5v2.9
			c-0.7,0.4-1.6,0.6-2.7,0.6c-1.8,0-3.5-0.9-3.5-3.4v-4.1h-1.5V163.3z"/>
		<path class="onedayclrlogost4" d="M342.8,166.9c0-0.9-0.8-1.2-1.7-1.2c-1.2,0-2.1,0.4-2.8,0.8v-2.6c0.9-0.5,2.1-0.8,3.4-0.8
			c2.4,0,4.2,0.9,4.2,3.7v6.2c-1,0.2-2.6,0.4-4,0.4c-2.4,0-4.4-0.7-4.4-3.1c0-2.1,1.6-3,4.3-3h1.1V166.9z M342.8,169.1h-0.8
			c-1,0-1.4,0.3-1.4,1c0,0.7,0.5,1,1.3,1c0.3,0,0.7,0,1-0.1V169.1z"/>
		<path class="onedayclrlogost4" d="M351.7,173.2h-3.1v-14.9h3.1V173.2z"/>
	</g>
</g>
</svg>
